<?xml version="1.0" standalone="no"?>
<!DOCTYPE svg PUBLIC "-//W3C//DTD SVG 20010904//EN"
 "http://www.w3.org/TR/2001/REC-SVG-20010904/DTD/svg10.dtd">
<svg version="1.0" xmlns="http://www.w3.org/2000/svg"
 width="570.000000pt" height="438.000000pt" viewBox="0 0 570.000000 438.000000"
 preserveAspectRatio="xMidYMid meet">
<metadata>
Created by potrace 1.16, written by Peter Selinger 2001-2019
</metadata>
<g transform="translate(0.000000,438.000000) scale(0.100000,-0.100000)"
fill="#000000" stroke="none">
<path d="M2395 4080 c-3 -6 -32 -9 -63 -8 -31 1 -62 -1 -67 -4 -6 -4 -26 -3
-45 1 -46 10 -125 -10 -220 -55 -63 -30 -81 -35 -117 -29 -24 3 -43 10 -43 15
0 5 -8 6 -18 2 -27 -10 -72 -48 -72 -60 0 -6 -12 -21 -27 -34 -45 -38 -64 -64
-69 -91 -4 -25 -3 -25 28 -17 46 14 233 11 305 -4 34 -8 65 -11 68 -8 3 3 5
-1 5 -8 0 -7 3 -11 6 -7 3 3 18 1 33 -4 51 -20 188 -32 197 -17 4 7 120 2 175
-7 49 -8 190 -66 184 -75 -3 -4 7 -11 21 -14 37 -10 235 -216 207 -216 -4 0
-3 -4 2 -8 19 -13 95 -150 95 -170 0 -11 5 -22 10 -24 6 -2 13 -16 16 -32 3
-16 9 -36 13 -45 16 -29 61 -174 56 -179 -3 -3 0 -10 5 -17 5 -6 19 -81 30
-166 32 -239 26 -219 63 -220 63 -2 113 3 180 17 38 8 74 11 79 8 7 -4 8 -2 4
4 -4 7 4 17 21 24 15 7 50 27 77 45 75 51 83 44 40 -38 -40 -75 -120 -173
-135 -163 -5 3 -9 -1 -9 -9 0 -32 -220 -146 -220 -114 0 7 -5 5 -10 -4 -5 -9
-26 -20 -45 -23 -19 -4 -36 -10 -36 -14 -11 -65 -13 -227 -4 -242 21 -33 25
-378 7 -480 -7 -36 -14 -78 -17 -95 -8 -47 -27 -105 -36 -105 -4 0 -9 -10 -12
-22 -4 -13 -26 -42 -50 -66 -38 -38 -51 -44 -98 -48 -68 -7 -107 16 -138 78
-27 57 -26 71 6 138 14 30 27 57 28 60 1 3 7 19 14 35 28 68 30 117 9 230 -11
61 -22 126 -24 145 -2 19 -11 60 -20 90 -8 30 -20 73 -26 95 -6 22 -14 42 -17
45 -16 12 -81 109 -81 119 0 6 -4 11 -9 11 -5 0 -21 24 -36 53 -15 28 -31 54
-34 57 -9 6 -59 93 -82 141 -13 25 -28 38 -53 46 -35 11 -36 10 -36 -15 0 -15
-8 -45 -18 -67 -10 -22 -17 -44 -17 -50 3 -29 19 -56 49 -78 33 -25 96 -131
96 -161 0 -9 4 -24 9 -34 5 -9 17 -50 26 -90 17 -70 17 -75 0 -112 -10 -22
-22 -40 -27 -40 -4 0 -8 -5 -8 -11 0 -6 -8 -23 -19 -37 -24 -35 -22 -124 4
-184 11 -23 22 -45 25 -48 14 -12 51 -80 44 -80 -4 0 -3 -5 4 -12 7 -7 12 -32
12 -57 0 -55 35 -156 66 -194 13 -16 24 -35 24 -42 0 -8 14 -29 30 -47 33 -36
32 -34 34 -99 3 -86 75 -126 153 -85 18 9 54 15 85 15 30 -1 64 3 74 9 10 5
35 17 54 26 47 23 93 65 109 101 17 40 100 155 111 155 9 0 8 12 -4 48 -10 30
7 50 61 73 41 18 43 20 44 64 1 25 2 51 3 58 0 6 -7 20 -16 30 -23 22 -23 42
2 67 11 11 20 23 20 28 0 13 33 37 108 77 47 26 74 47 81 64 16 41 7 220 -12
258 -9 18 -17 39 -17 48 0 8 -3 15 -7 15 -5 0 -8 24 -7 53 0 36 9 67 27 101
15 27 27 54 27 61 0 22 68 90 104 105 20 7 36 17 36 20 0 4 24 24 53 45 50 36
79 72 142 175 16 25 31 47 35 50 16 11 35 59 46 118 l12 62 -34 0 c-19 0 -34
-4 -34 -9 0 -8 -80 -23 -137 -26 -13 0 -28 -6 -33 -11 -15 -15 -60 -5 -60 12
0 8 -4 14 -10 14 -5 0 -13 12 -16 28 -4 15 -43 62 -86 105 -50 49 -78 84 -76
95 4 18 3 20 -42 73 -16 20 -30 48 -30 63 0 14 -13 47 -29 73 -16 27 -37 71
-46 98 -10 28 -24 57 -31 65 -6 8 -22 35 -34 60 -13 25 -26 47 -30 50 -15 10
-30 49 -21 54 9 6 47 -44 43 -56 -1 -5 8 -8 20 -8 12 0 19 3 15 6 -3 4 0 19 8
35 21 39 19 63 -6 85 -18 17 -39 19 -168 20 -162 2 -260 22 -307 63 -16 14
-29 19 -33 13 -3 -6 -19 -12 -36 -14 -23 -2 -32 -10 -38 -33 -16 -52 -23 -60
-56 -59 -19 1 -49 17 -82 43 -29 23 -63 44 -76 47 -12 4 -23 10 -23 15 0 5
-20 9 -44 9 -62 0 -80 20 -73 79 8 65 -1 97 -29 110 -30 13 -31 13 -39 1z"/>
<path d="M3970 1991 c0 -19 -64 -88 -106 -112 -24 -14 -41 -29 -36 -33 4 -4 2
-7 -3 -6 -36 8 -65 -43 -46 -78 18 -34 13 -74 -15 -114 -24 -33 -26 -43 -20
-92 9 -70 36 -106 79 -106 41 1 59 15 86 69 29 57 90 243 98 298 3 24 10 43
16 43 14 0 0 88 -18 117 -15 23 -35 31 -35 14z"/>
<path d="M2287 703 c-5 -7 -5 -14 0 -15 4 -1 -28 -4 -72 -8 -79 -6 -79 -6 -47
-19 34 -14 66 -64 92 -146 7 -22 30 -76 50 -121 21 -44 43 -97 51 -117 16 -46
40 -48 58 -4 7 17 29 65 48 106 19 40 40 90 48 110 46 130 94 189 133 165 13
-9 16 -34 18 -155 1 -79 6 -156 12 -170 12 -29 57 -69 78 -69 8 0 14 -4 14
-10 0 -6 32 -10 75 -10 43 0 75 4 75 10 0 6 9 10 20 10 17 0 79 52 81 69 0 3
3 15 5 26 2 11 4 82 4 157 l0 138 25 6 c50 13 23 24 -55 23 -79 -1 -103 -11
-55 -23 l25 -6 -1 -138 c-1 -189 -17 -222 -108 -222 -31 0 -49 7 -72 28 l-32
29 -5 151 -5 151 27 7 c14 3 26 10 26 15 0 12 -308 10 -316 -2 -3 -5 2 -9 10
-9 24 0 27 -15 10 -56 -34 -81 -37 -89 -41 -107 -4 -23 -32 -77 -47 -93 -9 -9
-15 -4 -25 20 -15 36 -20 48 -61 140 -34 77 -37 96 -15 96 8 0 15 5 15 10 0 6
-6 10 -14 10 -8 0 -16 8 -18 18 -3 12 -6 14 -11 5z"/>
<path d="M235 690 c4 -6 -10 -10 -34 -10 -23 0 -41 -4 -41 -10 0 -5 9 -10 20
-10 11 0 20 -3 21 -7 0 -5 1 -69 3 -143 4 -170 17 -207 89 -245 37 -19 64 -25
113 -25 35 0 64 3 64 8 0 4 16 16 37 27 59 32 74 79 76 240 2 130 3 134 25
140 48 12 19 25 -58 25 -76 0 -105 -11 -59 -23 20 -5 20 -11 17 -167 -3 -158
-3 -162 -28 -180 -35 -27 -109 -27 -140 0 -29 25 -39 80 -39 227 -1 103 1 112
19 118 35 11 21 25 -25 25 -25 0 -45 5 -45 10 0 6 -5 10 -11 10 -5 0 -7 -4 -4
-10z"/>
<path d="M920 692 c0 -10 -26 -13 -112 -12 -62 1 -120 1 -129 1 -11 -1 -19
-13 -24 -37 -7 -42 0 -55 18 -30 9 12 27 17 62 18 88 1 84 3 79 -49 -2 -27 -4
-106 -5 -177 -1 -116 -3 -129 -19 -133 -10 -3 -21 -11 -24 -19 -4 -10 4 -14
29 -14 19 0 35 5 35 10 0 6 14 10 30 10 17 0 30 -4 30 -10 0 -5 16 -10 35 -10
24 0 35 5 35 15 0 8 -7 15 -15 15 -11 0 -15 12 -17 43 l-1 42 -6 -45 c-5 -39
-7 -42 -13 -20 -11 38 -10 350 1 350 6 0 12 -24 14 -52 l3 -53 2 54 c2 44 5
52 18 47 9 -3 29 -6 46 -6 21 0 31 -6 35 -20 11 -41 30 -18 29 35 -1 30 -2 30
-61 33 -33 2 -63 9 -67 15 -6 9 -8 9 -8 -1z"/>
<path d="M1151 693 c-1 -8 -15 -13 -35 -13 -43 0 -55 -16 -18 -23 l28 -6 0
-148 c-1 -159 4 -178 53 -220 14 -13 34 -23 44 -23 9 0 17 -4 17 -10 0 -6 32
-10 75 -10 41 0 75 4 75 9 0 5 13 14 30 21 63 26 81 83 80 253 0 121 1 129 20
134 45 12 16 23 -52 21 -50 -2 -73 1 -75 10 -7 20 -22 13 -16 -8 3 -11 14 -20
24 -20 10 0 21 -6 26 -12 4 -7 6 -76 4 -153 -4 -186 -14 -205 -106 -205 -32 0
-52 7 -72 24 l-28 24 -3 157 c-4 152 -3 157 17 162 38 10 22 23 -28 23 -30 0
-51 5 -54 13 -4 10 -6 10 -6 0z"/>
<path d="M2061 693 c-1 -9 -19 -13 -56 -13 -57 0 -73 -13 -30 -24 l25 -6 -2
-187 c-3 -177 -4 -187 -23 -193 -35 -9 -28 -30 11 -30 21 0 33 4 29 10 -4 6 5
10 19 10 14 0 26 -6 26 -12 0 -9 4 -8 10 2 6 10 10 11 10 3 0 -8 14 -13 36
-13 39 0 44 23 6 28 -30 5 -32 21 -35 215 -2 167 -2 168 21 174 32 8 27 23 -7
23 -16 0 -32 6 -34 13 -4 10 -6 10 -6 0z"/>
<path d="M4341 690 c-1 -12 -10 -15 -41 -12 -44 4 -55 -12 -15 -22 l25 -6 0
-128 c-1 -98 3 -140 18 -185 10 -32 22 -59 28 -59 21 -3 64 -23 64 -30 0 -4
32 -8 70 -8 43 0 70 4 70 11 0 5 4 8 8 5 14 -9 81 43 98 76 13 24 17 64 18
177 1 144 1 146 24 149 47 7 8 22 -58 22 -45 0 -70 4 -73 13 -3 6 -6 -4 -6
-23 0 -22 2 -30 7 -22 5 7 16 10 25 7 14 -6 15 -26 12 -156 -2 -110 -7 -154
-18 -169 -11 -16 -16 -18 -20 -8 -4 9 -6 7 -6 -4 -1 -26 -31 -37 -77 -29 -84
16 -93 37 -93 220 -1 135 0 143 19 148 36 9 21 23 -24 23 -26 0 -46 5 -49 13
-4 8 -6 7 -6 -3z"/>
<path d="M1620 670 l-35 -6 28 -8 27 -8 -1 -177 c-2 -174 -2 -176 -27 -203
l-26 -28 32 0 c18 0 32 5 32 10 0 6 18 10 40 10 22 0 40 -4 40 -10 0 -6 33
-10 80 -10 88 0 78 -8 95 75 6 29 -10 33 -25 6 -8 -16 -20 -19 -77 -18 l-68 2
-5 76 c-3 42 -3 121 0 175 5 93 6 99 28 102 12 2 22 8 22 13 0 10 -107 10
-160 -1z"/>
<path d="M3310 672 c-1 -4 -3 -25 -6 -47 l-5 -40 19 22 c12 13 37 24 65 28
l46 7 4 -48 3 -49 2 48 c1 26 7 47 12 47 6 0 10 -66 10 -179 0 -109 -4 -182
-10 -186 -6 -4 -11 9 -11 32 -2 36 -2 35 -9 -12 -4 -27 -3 -57 1 -65 5 -10 8
-11 9 -2 0 6 9 12 21 12 11 0 17 5 14 10 -4 6 8 10 29 10 20 0 36 -4 36 -10 0
-5 16 -10 35 -10 24 0 35 5 35 15 0 9 -9 15 -24 15 -13 0 -26 7 -30 15 -3 8
-6 90 -7 182 l-1 168 38 3 c45 3 94 -15 94 -34 0 -8 4 -14 9 -14 9 0 21 70 14
83 -5 9 -393 8 -393 -1z"/>
<path d="M3865 666 c-122 -54 -176 -202 -111 -304 29 -46 93 -102 118 -102 9
0 20 -4 23 -10 8 -13 155 -13 155 0 0 6 9 10 19 10 11 0 23 5 26 10 4 6 10 8
14 6 10 -7 61 49 84 92 10 18 21 57 24 87 5 45 1 63 -20 108 -28 55 -65 98
-95 105 -45 13 -209 11 -237 -2z m187 -52 c52 -36 59 -53 65 -140 5 -95 -17
-152 -70 -177 -41 -20 -50 -20 -98 -7 -93 26 -139 137 -109 265 21 91 124 119
212 59z"/>
<path d="M4774 671 c-2 -3 10 -11 27 -18 22 -9 29 -18 25 -29 -3 -9 -6 -93 -6
-186 0 -94 -3 -168 -7 -165 -7 8 -33 -11 -33 -24 0 -5 14 -9 31 -9 17 0 28 4
24 10 -4 6 7 10 25 10 18 0 29 -4 25 -10 -4 -6 10 -10 34 -10 45 0 60 26 19
32 -21 3 -23 10 -28 76 l-5 72 26 0 c18 0 36 -12 60 -41 90 -108 102 -119 126
-119 14 0 21 -4 18 -10 -4 -6 15 -10 50 -10 35 0 54 4 50 10 -3 6 -2 10 4 10
5 0 13 -4 16 -10 3 -5 37 -10 76 -10 39 0 69 4 69 10 0 6 7 10 15 10 8 0 29
13 46 30 28 26 32 37 33 83 0 49 -3 57 -34 86 -19 18 -58 48 -87 66 -60 39
-78 66 -64 94 21 39 96 43 129 8 12 -13 22 -28 22 -33 0 -6 6 -11 13 -11 15 0
18 79 3 89 -6 4 -46 8 -88 8 -72 0 -80 -2 -113 -31 -30 -27 -35 -37 -35 -76 0
-62 21 -91 101 -143 60 -39 69 -49 69 -75 0 -36 -7 -48 -39 -65 -25 -13 -75
-7 -98 11 -7 6 -13 24 -13 40 0 18 -5 28 -12 27 -17 -4 -26 -26 -27 -65 -1
-18 -4 -33 -7 -33 -20 0 -67 42 -122 108 l-63 75 32 29 c40 37 51 103 25 144
-29 44 -75 56 -198 52 -60 -2 -112 -5 -114 -7z m212 -47 c32 -15 34 -19 34
-66 0 -72 -12 -88 -65 -88 l-44 0 -3 85 c-3 84 -3 85 20 85 13 0 39 -7 58 -16z"/>
</g>
</svg>
